<svg width="184" height="158" viewBox="0 0 184 158" fill="none" xmlns="http://www.w3.org/2000/svg">
<path d="M33.2341 20.0805L34.8462 18.8955L34.989 18.2622L39.4372 24.3911L37.764 25.5556L37.5198 25.7282C36.4893 26.4567 35.0389 27.4818 33.1526 28.8039C32.2956 29.5394 31.3366 30.3566 30.2552 31.235C29.0799 32.1521 27.9686 33.1488 26.9293 34.2178L23.2361 37.8747C22.073 39.2639 20.8284 40.6327 19.5429 42.2263C18.2574 43.8198 17.1351 45.5972 15.87 47.3337C15.231 48.2345 14.6517 49.1763 14.1357 50.153C13.6051 51.0315 13.0134 52.0734 12.4421 53.0745C11.4422 55.097 10.4424 57.283 9.40182 59.4485C8.97333 60.613 8.58568 61.7776 8.15719 62.9216C7.71219 64.0849 7.33075 65.2716 7.01454 66.4764C6.30391 68.9251 5.74511 71.4155 5.34137 73.9333C5.19854 75.2204 4.89245 76.4871 4.81083 77.7946C4.72922 79.1021 4.60684 80.43 4.60684 81.7375C4.56375 82.4178 4.56375 83.1002 4.60684 83.7805V85.8234C4.68846 87.2127 4.83126 88.561 4.83126 89.9094L5.50464 93.8523C5.56854 94.5411 5.68446 95.2241 5.85148 95.8953L6.38201 97.8157C7.79616 102.99 9.93977 107.936 12.7482 112.505C13.5644 113.608 14.2786 114.895 15.0947 115.855C15.9109 116.815 16.7678 117.857 17.5636 118.858C22.5223 124.534 28.6196 129.101 35.4583 132.26C39.5124 134.118 43.735 135.582 48.0682 136.632C50.0678 136.98 52.0062 137.47 53.8834 137.674L56.6381 138.001L59.2498 138.164C60.1067 138.287 60.9025 138.287 61.6779 138.287H66.0853L68.0033 138.164C69.2072 138.042 70.2886 138.001 71.2476 137.899L73.5941 137.592L75.6346 137.327L73.5941 137.674L71.2068 138.083C70.2682 138.246 69.1867 138.328 67.9625 138.471L66.0649 138.716H64.0244L61.7187 138.839H61.2291H59.1886C58.352 138.839 57.4746 138.88 56.5564 138.839C55.6382 138.798 54.72 138.614 53.761 138.614C51.8634 138.532 49.8229 138.103 47.7825 137.797C43.314 136.968 38.9441 135.673 34.7441 133.936C30.0445 131.916 25.6163 129.315 21.5629 126.193C19.3868 124.533 17.3405 122.709 15.4416 120.738C14.503 119.655 13.544 118.654 12.6258 117.612L10.1568 114.323C9.3202 113.097 8.64688 111.912 7.89192 110.666C7.11288 109.476 6.43053 108.226 5.85148 106.927L4.07631 103.025C3.54579 101.718 3.15812 100.288 2.68882 98.9393L1.99502 96.8963C1.8055 96.2247 1.65567 95.5426 1.54618 94.8534L0.648382 90.6448C0.464742 89.2148 0.38308 87.8051 0.219844 86.3546L0.0362745 84.3117C-0.00449436 83.5904 -0.00449436 82.8674 0.0362745 82.1461C0.0362745 80.7569 -0.0453431 79.2042 0.0362745 77.8967C0.117892 76.5892 0.301452 75.2 0.464687 73.8107C0.747007 71.0563 1.22433 68.3255 1.89302 65.6388C2.16683 64.3156 2.52816 63.0121 2.97451 61.7368C3.34179 60.4701 3.7702 59.2239 4.15788 57.9572C5.09648 55.5669 6.05553 53.1562 7.13697 50.9294C7.69485 49.7524 8.25269 48.7702 8.82957 47.7546L8.87129 47.6811C9.37594 46.6 9.95555 45.5555 10.6057 44.5553C11.8708 42.594 13.0339 40.6532 14.2989 38.8962L18.1554 33.9727C19.4613 32.563 20.7467 31.2147 21.971 29.8867C23.0906 28.6513 24.2901 27.4911 25.5621 26.4136C26.7251 25.3717 27.8066 24.4116 28.7656 23.5127L33.2341 20.0805Z" fill="#EAEAEA"/>
<path d="M109.383 154.508C109.607 154.136 109.954 153.854 110.363 153.712C110.893 152.547 111.791 152.322 113.852 151.669C118.831 150.892 123.769 150.157 128.829 149.626C130.482 148.665 132.134 147.583 133.808 146.704C135.073 144.273 136.46 141.76 137.766 139.329C138.002 139.329 138.216 139.315 138.422 139.291L138.48 139.145H138.643L138.595 139.269C138.931 139.222 139.254 139.153 139.623 139.084C139.459 142.148 139.276 145.213 139.113 148.236C140.5 147.583 141.826 147.011 143.193 146.316C143.5 146.193 143.887 146.112 143.948 146.193L140.072 149.135C140.108 149.598 139.985 150.059 139.725 150.443C137.685 151.362 135.645 152.219 133.606 153.077L133.603 153.078C129.265 154.444 124.832 155.489 120.341 156.204C120.394 156.377 120.394 156.562 120.341 156.735C120.321 156.801 120.284 156.86 120.234 156.907C120.183 156.953 120.122 156.986 120.055 157.001L119.565 157.246C119.565 157.246 119.565 157.593 119.32 157.614C118 158.025 116.599 158.11 115.239 157.859C114.956 157.607 114.776 157.258 114.734 156.881C114.693 156.503 114.793 156.124 115.015 155.816C112.975 155.816 111.281 156.367 109.424 154.896C109.22 154.713 109.2 154.713 109.261 154.427L109.383 154.508Z" fill="#EAEAEA"/>
<path d="M150.784 139.533L149.213 140.759L149.254 141.29L144.805 135.161C144.805 135.161 145.438 134.732 146.479 133.997C147.519 133.261 149.131 132.179 151.049 130.789L153.947 128.358C155.132 127.453 156.251 126.463 157.293 125.396L160.966 121.719C162.17 120.329 163.373 118.879 164.659 117.326C165.944 115.773 167.046 113.996 168.332 112.26C168.967 111.356 169.547 110.415 170.066 109.44C170.637 108.562 171.188 107.479 171.76 106.519C172.8 104.455 173.78 102.31 174.841 100.104C175.228 98.9802 175.657 97.8157 176.085 96.6512C176.533 95.4959 176.915 94.3159 177.228 93.1169C177.944 90.6584 178.49 88.1532 178.86 85.6192C179.044 84.3525 179.289 83.0654 179.391 81.7579L179.636 77.8353V75.7924L179.534 73.7494C179.452 72.4214 179.411 71.0732 179.248 69.7657L178.636 65.8023C178.542 65.115 178.413 64.4331 178.248 63.7593L177.718 61.7163C176.343 56.5473 174.197 51.6157 171.352 47.0886C170.576 45.9649 169.821 44.8005 169.046 43.7177L166.577 40.6737C164.845 38.7582 162.991 36.9566 161.027 35.2802C157.26 32.0884 153.097 29.3965 148.641 27.2717C144.605 25.4153 140.395 23.9645 136.072 22.9406C134.032 22.5524 132.094 22.103 130.216 21.8987L127.482 21.5514C126.584 21.3675 125.748 21.4901 124.891 21.3676C124.034 21.245 123.238 21.245 122.422 21.245H122.422H118.055C117.362 21.4083 116.75 21.4083 116.138 21.4083H116.137C114.933 21.4696 113.832 21.5106 112.893 21.6332L110.506 21.9395C109.159 22.2051 108.465 22.2051 108.465 22.2051C108.465 22.2051 109.241 22.103 110.506 21.8578L112.893 21.4492C113.832 21.2858 114.913 21.2245 116.097 21.0611C116.709 21.0202 117.361 20.8568 118.035 20.8568L120.075 20.7547H122.34H122.891H124.809H127.482L130.237 20.9794C132.242 21.1509 134.237 21.4235 136.215 21.7965C140.692 22.6579 145.072 23.9581 149.294 25.6782C153.989 27.683 158.405 30.2854 162.435 33.421C164.605 35.0806 166.651 36.897 168.556 38.8554C169.495 39.9791 170.474 40.9392 171.331 42.022C172.188 43.1048 172.943 44.0038 173.8 45.2704C174.657 46.5371 175.31 47.7015 176.085 48.9273C176.864 50.1168 177.547 51.3671 178.126 52.666L179.942 56.6089C180.472 57.9573 180.86 59.3261 181.329 60.6949L181.982 62.7378C182.207 63.3507 182.288 64.0862 182.472 64.7808L183.329 69.0301C183.553 70.4193 183.635 71.8494 183.798 73.2795L183.982 75.4246V77.4676C183.982 78.8977 184.023 80.3687 183.982 81.717C183.941 83.0654 183.717 84.4138 183.594 85.803C183.312 88.5574 182.834 91.2882 182.166 93.9749C181.883 95.2824 181.521 96.5718 181.084 97.8362C180.676 99.1028 180.289 100.39 179.901 101.616C178.922 104.006 177.963 106.437 176.881 108.643L175.188 111.933C174.667 112.992 174.088 114.022 173.453 115.018C172.147 116.979 171.066 118.961 169.719 120.697C168.373 122.434 167.209 124.231 165.904 125.641C164.598 127.051 163.271 128.399 162.088 129.727C160.969 130.963 159.769 132.123 158.497 133.2C157.334 134.283 156.252 135.243 155.293 136.101C153.375 137.633 151.825 138.757 150.784 139.533Z" fill="#EAEAEA"/>
<path d="M37.866 12.9096C38.4781 12.5623 39.1311 12.215 39.7024 11.8677C42.6407 12.4397 45.4564 13.1752 48.6599 13.5225C51.2104 12.215 53.7815 10.9687 56.2912 9.66121L52.9653 9.04835C53.4557 8.66984 54.008 8.37954 54.5976 8.19033C56.4136 8.00646 58.1888 7.92478 59.964 7.72049L59.965 7.71998C61.2297 7.0664 62.4945 6.41282 63.7796 5.80008L65.5139 4.88072C76.9608 -3.84279 83.8779 0.447478 69.3295 7.45489C68.4999 8.00869 67.7202 8.44575 66.9453 8.87153C66.8683 8.94276 66.7894 9.00757 66.6974 9.00757C66.78 8.96227 66.8627 8.91696 66.9453 8.87153C67.0051 8.81629 67.0636 8.75721 67.126 8.72152C67.2851 8.61732 67.4179 8.4774 67.5136 8.3129C67.5738 8.16207 67.5738 7.99389 67.5136 7.84306C67.4407 7.78303 67.3547 7.74063 67.2627 7.71936C67.1707 7.6981 67.075 7.69855 66.9831 7.72049C66.66 7.82362 66.346 7.95346 66.0445 8.10866C65.7792 8.27209 65.4732 8.43553 65.2079 8.6194C62.8818 10.0903 60.4536 11.4387 58.2295 13.0526C58.2295 13.0526 58.1071 13.1752 57.9847 13.2773C53.3529 15.4191 48.493 17.0268 43.4986 18.0695C42.8043 18.462 42.1162 18.8788 41.4163 19.2837C41.906 18.9364 42.763 18.4256 43.4568 18.0783C43.4707 18.0754 43.4847 18.0725 43.4986 18.0695C43.7151 17.9471 43.9323 17.8271 44.1506 17.7105L46.191 16.4439C46.4155 16.2805 46.7011 16.158 46.8847 16.015L47.1295 15.8515C47.1295 15.8515 47.2316 15.8515 47.1295 15.7085C47.0275 15.5655 46.9867 15.5859 46.8643 15.7085L46.5174 15.8106C46.1768 15.9201 45.843 16.0497 45.5176 16.1988L44.7014 16.546C44.5994 16.546 44.5178 16.6686 44.3954 16.7095L44.2117 16.8321C43.518 17.2815 42.8854 17.7106 42.1713 18.1805C41.7836 17.8332 41.5183 17.2203 42.4161 16.7504C40.947 15.5042 39.2739 14.1558 37.8251 12.9301L37.866 12.9096Z" fill="#EAEAEA"/>
<path d="M65.0855 9.88603C65.2252 9.8498 65.3567 9.78736 65.4732 9.70211H65.4119L65.5956 9.57954L66.9831 8.66017C67.534 8.31287 67.5748 7.70001 66.9831 7.80216C66.3676 8.02317 65.7842 8.32548 65.2487 8.70107C62.943 10.172 60.4741 11.5612 58.2704 13.1343C57.1788 13.971 56.0337 14.7354 54.8425 15.4224C53.2713 16.2805 51.8022 17.0977 50.2923 17.8945C50.8228 17.7106 51.3125 17.731 52.1082 17.2407C52.904 16.7504 55.0261 15.7698 56.1891 15.1977C57.3113 14.5848 58.3113 13.972 59.3519 13.2978C60.0456 12.9096 60.7598 12.4806 61.3923 12.1333C62.5758 11.3978 64.0449 10.5398 65.0855 9.88603Z" fill="#EAEAEA"/>
<path d="M41.0695 19.0385L40.6002 19.3858V19.4676C40.7934 19.4405 40.9842 19.3995 41.1715 19.345C42.4978 18.5891 47.0071 15.8719 47.0071 15.8719C46.0314 16.1061 45.0961 16.4848 44.2322 16.9956C43.1099 17.588 42.1305 18.3439 41.0695 19.0385Z" fill="#EAEAEA"/>
<path d="M66.3097 9.92681H65.4324V10.0291C65.3309 10.0588 65.2393 10.1152 65.1671 10.1924L61.6983 12.2354C62.4533 12.0924 63.0042 11.9698 63.8612 11.7655C63.4327 12.1741 62.5757 12.5623 62.9634 12.7461C63.3511 12.93 65.0855 12.1741 65.6976 11.9698H65.9833C66.3436 11.8285 66.6916 11.6576 67.0238 11.459C66.8576 11.2284 66.7141 10.9821 66.5954 10.7236C66.4592 10.4746 66.3628 10.2057 66.3097 9.92681Z" fill="#EAEAEA"/>
<path d="M61.4126 12.9505C60.8821 13.0731 60.3517 13.0935 59.8416 13.2161L59.862 13.4408L59.4743 13.6859L56.6992 15.3203C57.3055 15.0958 57.9611 15.0393 58.5968 15.1568C58.3928 15.3611 58.0051 15.8515 58.0867 15.8515H58.5968C58.8599 15.8026 59.1191 15.7344 59.3722 15.6472L60.8005 15.0343C61.2526 14.8663 61.6839 14.6469 62.086 14.3805C61.9273 14.1815 61.7968 13.9616 61.6983 13.7268C61.5804 13.477 61.4848 13.2172 61.4126 12.9505Z" fill="#EAEAEA"/>
<path d="M66.6223 9.8942C66.5687 9.85006 66.5178 9.82469 66.473 9.82469L66.5137 9.76346C66.5514 9.80597 66.5876 9.84956 66.6223 9.8942C66.9352 10.1518 67.3409 11.0485 67.1667 11.2752C67.1211 10.771 66.9315 10.2918 66.6223 9.8942Z" fill="#EAEAEA"/>
</svg>
